<svg xmlns="http://www.w3.org/2000/svg" xmlns:xlink="http://www.w3.org/1999/xlink" contentStyleType="text/css" data-diagram-type="CLASS" height="774px" preserveAspectRatio="none" style="width:2953px;height:774px;background:#FFFFFF;" version="1.1" viewBox="0 0 2953 774" width="2953px" zoomAndPan="magnify"><?plantuml 1.2026.6?><defs/><g><g class="title" data-source-line="13"><text fill="#000000" font-family="sans-serif" font-size="14" font-weight="700" lengthAdjust="spacing" textLength="442.9414" x="1251.9746" y="22.9951">FrontEnd 3/3 &#8212; UI Panels &amp; Buttons (MachineUI) (Unity)</text></g><g class="entity" data-qualified-name="N1" data-source-line="16" id="ent0001"><path d="M134.5,104.7969 L134.5,175.3281 L599.709,175.3281 L599.709,114.7969 L589.709,104.7969 L134.5,104.7969" fill="#FEFFDD" style="stroke:#181818;stroke-width:0.5;"/><path d="M589.709,104.7969 L589.709,114.7969 L599.709,114.7969 L589.709,104.7969" fill="#FEFFDD" style="stroke:#181818;stroke-width:1;"/><text fill="#000000" font-family="sans-serif" font-size="13" font-weight="700" lengthAdjust="spacing" textLength="44.1226" x="140.5" y="121.8638">Scope</text><text fill="#000000" font-family="sans-serif" font-size="13" lengthAdjust="spacing" textLength="290.2656" x="184.6226" y="121.8638">: FrontEnd/UI/MachineUI (global namespace)</text><text fill="#000000" font-family="sans-serif" font-size="13" lengthAdjust="spacing" textLength="444.209" x="140.5" y="136.9966">Bridge interfaces appear as stubs here &#8212; the full ISubject/IObserver</text><text fill="#000000" font-family="sans-serif" font-size="13" lengthAdjust="spacing" textLength="416.1523" x="140.5" y="152.1294">hierarchy is in FRONTEND_VIEW.puml. Target blocks (BeltBlock,</text><text fill="#000000" font-family="sans-serif" font-size="13" lengthAdjust="spacing" textLength="338.3872" x="140.5" y="167.2622">TrackBlock) are detailed in FRONTEND_BLOCK.puml</text></g><!--class IBlockObserver--><g class="entity" data-qualified-name="IBlockObserver" data-source-line="26" id="ent0002"><rect fill="#FFFFFF" height="64.2969" rx="2.5" ry="2.5" style="stroke:#333333;stroke-width:0.5;" width="334.335" x="7" y="332.7969"/><ellipse cx="119.3452" cy="348.7969" fill="#B4A7E5" rx="11" ry="11" style="stroke:#181818;stroke-width:1;"/><path d="M115.2671,344.5625 L115.2671,342.4063 L122.6577,342.4063 L122.6577,344.5625 L120.189,344.5625 L120.189,352.6406 L122.6577,352.6406 L122.6577,354.7969 L115.2671,354.7969 L115.2671,352.6406 L117.7358,352.6406 L117.7358,344.5625 L115.2671,344.5625 Z " fill="#000000"/><text fill="#000000" font-family="Courier" font-size="12" font-style="italic" lengthAdjust="spacing" textLength="101.1445" x="139.8452" y="352.9512">IBlockObserver</text><line style="stroke:#333333;stroke-width:0.5;" x1="8" x2="340.335" y1="364.7969" y2="364.7969"/><line style="stroke:#333333;stroke-width:0.5;" x1="8" x2="340.335" y1="372.7969" y2="372.7969"/><text fill="#000000" font-family="sans-serif" font-size="14" lengthAdjust="spacing" textLength="322.335" x="13" y="389.792">+OnBlockChanged(block: IBlockSubject): void</text></g><!--class IUIPanelButtonObserver--><g class="entity" data-qualified-name="IUIPanelButtonObserver" data-source-line="29" id="ent0003"><rect fill="#FFFFFF" height="64.2969" rx="2.5" ry="2.5" style="stroke:#333333;stroke-width:0.5;" width="412.4014" x="376" y="332.7969"/><ellipse cx="498.48" cy="348.7969" fill="#B4A7E5" rx="11" ry="11" style="stroke:#181818;stroke-width:1;"/><path d="M494.4019,344.5625 L494.4019,342.4063 L501.7925,342.4063 L501.7925,344.5625 L499.3237,344.5625 L499.3237,352.6406 L501.7925,352.6406 L501.7925,354.7969 L494.4019,354.7969 L494.4019,352.6406 L496.8706,352.6406 L496.8706,344.5625 L494.4019,344.5625 Z " fill="#000000"/><text fill="#000000" font-family="Courier" font-size="12" font-style="italic" lengthAdjust="spacing" textLength="158.9414" x="518.98" y="352.9512">IUIPanelButtonObserver</text><line style="stroke:#333333;stroke-width:0.5;" x1="377" x2="787.4014" y1="364.7969" y2="364.7969"/><line style="stroke:#333333;stroke-width:0.5;" x1="377" x2="787.4014" y1="372.7969" y2="372.7969"/><text fill="#000000" font-family="sans-serif" font-size="14" lengthAdjust="spacing" textLength="400.4014" x="382" y="389.792">+OnButtonSelected(button: IUIPanelButtonSubject): void</text></g><!--class IUIPanelButtonSubject--><g class="entity" data-qualified-name="IUIPanelButtonSubject" data-source-line="32" id="ent0004"><rect fill="#FFFFFF" height="48" rx="2.5" ry="2.5" style="stroke:#333333;stroke-width:0.5;" width="183.7168" x="1788" y="340.7969"/><ellipse cx="1803" cy="356.7969" fill="#B4A7E5" rx="11" ry="11" style="stroke:#181818;stroke-width:1;"/><path d="M1798.9219,352.5625 L1798.9219,350.4063 L1806.3125,350.4063 L1806.3125,352.5625 L1803.8438,352.5625 L1803.8438,360.6406 L1806.3125,360.6406 L1806.3125,362.7969 L1798.9219,362.7969 L1798.9219,360.6406 L1801.3906,360.6406 L1801.3906,352.5625 L1798.9219,352.5625 Z " fill="#000000"/><text fill="#000000" font-family="Courier" font-size="12" font-style="italic" lengthAdjust="spacing" textLength="151.7168" x="1817" y="360.9512">IUIPanelButtonSubject</text><line style="stroke:#333333;stroke-width:0.5;" x1="1789" x2="1970.7168" y1="372.7969" y2="372.7969"/><line style="stroke:#333333;stroke-width:0.5;" x1="1789" x2="1970.7168" y1="380.7969" y2="380.7969"/></g><!--class UIPanelBase--><g class="entity" data-qualified-name="UIPanelBase" data-source-line="39" id="ent0005"><rect fill="#FFFFFF" height="192.3125" rx="2.5" ry="2.5" style="stroke:#333333;stroke-width:0.5;" width="412.4014" x="635" y="44.2969"/><ellipse cx="784.7778" cy="63.2656" fill="#ADD1B2" rx="11" ry="11" style="stroke:#181818;stroke-width:1;"/><path d="M787.7466,68.9063 Q787.1685,69.2031 786.5278,69.3438 Q785.8872,69.5 785.1841,69.5 Q782.6841,69.5 781.356,67.8594 Q780.0435,66.2031 780.0435,63.0781 Q780.0435,59.9531 781.356,58.2969 Q782.6841,56.6406 785.1841,56.6406 Q785.8872,56.6406 786.5278,56.7969 Q787.1841,56.9531 787.7466,57.25 L787.7466,59.9688 Q787.1216,59.3906 786.5278,59.125 Q785.9341,58.8438 785.3091,58.8438 Q783.9653,58.8438 783.2778,59.9219 Q782.5903,60.9844 782.5903,63.0781 Q782.5903,65.1719 783.2778,66.25 Q783.9653,67.3125 785.3091,67.3125 Q785.9341,67.3125 786.5278,67.0469 Q787.1216,66.7656 787.7466,66.1875 L787.7466,68.9063 Z " fill="#000000"/><text fill="#000000" font-family="sans-serif" font-size="12" font-style="italic" lengthAdjust="spacing" textLength="108.3457" x="803.2778" y="60.4355">&#171;MonoBehaviour&#187;</text><text fill="#000000" font-family="Courier" font-size="12" lengthAdjust="spacing" textLength="79.4707" x="817.7153" y="74.4043">UIPanelBase</text><line style="stroke:#333333;stroke-width:0.5;" x1="636" x2="1046.4014" y1="82.2344" y2="82.2344"/><text fill="#000000" font-family="sans-serif" font-size="14" lengthAdjust="spacing" textLength="254.7139" x="641" y="99.2295">-panel: GameObject &#171;SerializeField&#187;</text><text fill="#000000" font-family="sans-serif" font-size="14" lengthAdjust="spacing" textLength="173.8516" x="641" y="115.5264">-_targetBlock: BlockBase</text><line style="stroke:#333333;stroke-width:1;" x1="636" x2="1046.4014" y1="122.8281" y2="122.8281"/><text fill="#000000" font-family="sans-serif" font-size="14" lengthAdjust="spacing" textLength="323.9072" x="641" y="139.8232">+TargetBlock: BlockBase &#171;get, protected set&#187;</text><line style="stroke:#333333;stroke-width:1;" x1="636" x2="1046.4014" y1="147.125" y2="147.125"/><text fill="#000000" font-family="sans-serif" font-size="14" lengthAdjust="spacing" textLength="231.4854" x="641" y="164.1201">+OpenUI(block: BlockBase): void</text><text fill="#000000" font-family="sans-serif" font-size="14" lengthAdjust="spacing" textLength="113.9619" x="641" y="180.417">+CloseUI(): void</text><text fill="#000000" font-family="sans-serif" font-size="14" lengthAdjust="spacing" textLength="304.3701" x="641" y="196.7139">+SetSelectOj(selectObj: GameObject): void</text><text fill="#000000" font-family="sans-serif" font-size="14" lengthAdjust="spacing" textLength="322.335" x="641" y="213.0107">+OnBlockChanged(block: IBlockSubject): void</text><text fill="#000000" font-family="sans-serif" font-size="14" lengthAdjust="spacing" textLength="400.4014" x="641" y="229.3076">+OnButtonSelected(button: IUIPanelButtonSubject): void</text></g><!--class MachineSelectUI--><g class="entity" data-qualified-name="MachineSelectUI" data-source-line="52" id="ent0006"><rect fill="#FFFFFF" height="102.8281" rx="2.5" ry="2.5" style="stroke:#333333;stroke-width:0.5;" width="412.4014" x="894" y="313.2969"/><ellipse cx="1041.7661" cy="332.2656" fill="#ADD1B2" rx="11" ry="11" style="stroke:#181818;stroke-width:1;"/><path d="M1044.7349,337.9063 Q1044.1567,338.2031 1043.5161,338.3438 Q1042.8755,338.5 1042.1724,338.5 Q1039.6724,338.5 1038.3442,336.8594 Q1037.0317,335.2031 1037.0317,332.0781 Q1037.0317,328.9531 1038.3442,327.2969 Q1039.6724,325.6406 1042.1724,325.6406 Q1042.8755,325.6406 1043.5161,325.7969 Q1044.1724,325.9531 1044.7349,326.25 L1044.7349,328.9688 Q1044.1099,328.3906 1043.5161,328.125 Q1042.9224,327.8438 1042.2974,327.8438 Q1040.9536,327.8438 1040.2661,328.9219 Q1039.5786,329.9844 1039.5786,332.0781 Q1039.5786,334.1719 1040.2661,335.25 Q1040.9536,336.3125 1042.2974,336.3125 Q1042.9224,336.3125 1043.5161,336.0469 Q1044.1099,335.7656 1044.7349,335.1875 L1044.7349,337.9063 Z " fill="#000000"/><text fill="#000000" font-family="sans-serif" font-size="12" font-style="italic" lengthAdjust="spacing" textLength="108.3457" x="1062.2778" y="329.4355">&#171;MonoBehaviour&#187;</text><text fill="#000000" font-family="Courier" font-size="12" lengthAdjust="spacing" textLength="108.3691" x="1062.2661" y="343.4043">MachineSelectUI</text><line style="stroke:#333333;stroke-width:0.5;" x1="895" x2="1305.4014" y1="351.2344" y2="351.2344"/><text fill="#000000" font-family="sans-serif" font-size="14" lengthAdjust="spacing" textLength="307.2549" x="900" y="368.2295">-buttonPrefab: GameObject &#171;SerializeField&#187;</text><text fill="#000000" font-family="sans-serif" font-size="14" lengthAdjust="spacing" textLength="249.3818" x="900" y="384.5264">-buttons: List~UIPanelButtonBase~</text><line style="stroke:#333333;stroke-width:1;" x1="895" x2="1305.4014" y1="391.8281" y2="391.8281"/><text fill="#000000" font-family="sans-serif" font-size="14" lengthAdjust="spacing" textLength="400.4014" x="900" y="408.8232">+OnButtonSelected(button: IUIPanelButtonSubject): void</text></g><!--class MachineModifyUI--><g class="entity" data-qualified-name="MachineModifyUI" data-source-line="59" id="ent0007"><rect fill="#FFFFFF" height="135.4219" rx="2.5" ry="2.5" style="stroke:#333333;stroke-width:0.5;" width="412.4014" x="1341" y="297.2969"/><ellipse cx="1488.7661" cy="316.2656" fill="#ADD1B2" rx="11" ry="11" style="stroke:#181818;stroke-width:1;"/><path d="M1491.7349,321.9063 Q1491.1567,322.2031 1490.5161,322.3438 Q1489.8755,322.5 1489.1724,322.5 Q1486.6724,322.5 1485.3442,320.8594 Q1484.0317,319.2031 1484.0317,316.0781 Q1484.0317,312.9531 1485.3442,311.2969 Q1486.6724,309.6406 1489.1724,309.6406 Q1489.8755,309.6406 1490.5161,309.7969 Q1491.1724,309.9531 1491.7349,310.25 L1491.7349,312.9688 Q1491.1099,312.3906 1490.5161,312.125 Q1489.9224,311.8438 1489.2974,311.8438 Q1487.9536,311.8438 1487.2661,312.9219 Q1486.5786,313.9844 1486.5786,316.0781 Q1486.5786,318.1719 1487.2661,319.25 Q1487.9536,320.3125 1489.2974,320.3125 Q1489.9224,320.3125 1490.5161,320.0469 Q1491.1099,319.7656 1491.7349,319.1875 L1491.7349,321.9063 Z " fill="#000000"/><text fill="#000000" font-family="sans-serif" font-size="12" font-style="italic" lengthAdjust="spacing" textLength="108.3457" x="1509.2778" y="313.4355">&#171;MonoBehaviour&#187;</text><text fill="#000000" font-family="Courier" font-size="12" lengthAdjust="spacing" textLength="108.3691" x="1509.2661" y="327.4043">MachineModifyUI</text><line style="stroke:#333333;stroke-width:0.5;" x1="1342" x2="1752.4014" y1="335.2344" y2="335.2344"/><text fill="#000000" font-family="sans-serif" font-size="14" lengthAdjust="spacing" textLength="300.3301" x="1347" y="352.2295">-_machineTypeTxt: UIView &#171;SerializeField&#187;</text><text fill="#000000" font-family="sans-serif" font-size="14" lengthAdjust="spacing" textLength="239.1211" x="1347" y="368.5264">-_levelTxt: UIView &#171;SerializeField&#187;</text><text fill="#000000" font-family="sans-serif" font-size="14" lengthAdjust="spacing" textLength="283.5615" x="1347" y="384.8232">-_levelUpPayTxt: UIView &#171;SerializeField&#187;</text><line style="stroke:#333333;stroke-width:1;" x1="1342" x2="1752.4014" y1="392.125" y2="392.125"/><text fill="#000000" font-family="sans-serif" font-size="14" lengthAdjust="spacing" textLength="322.335" x="1347" y="409.1201">+OnBlockChanged(block: IBlockSubject): void</text><text fill="#000000" font-family="sans-serif" font-size="14" lengthAdjust="spacing" textLength="400.4014" x="1347" y="425.417">+OnButtonSelected(button: IUIPanelButtonSubject): void</text></g><!--class TrackModifyUI--><g class="entity" data-qualified-name="TrackModifyUI" data-source-line="68" id="ent0008"><rect fill="#FFFFFF" height="119.125" rx="2.5" ry="2.5" style="stroke:#333333;stroke-width:0.5;" width="412.4014" x="735" y="509.2969"/><ellipse cx="884.7778" cy="528.2656" fill="#ADD1B2" rx="11" ry="11" style="stroke:#181818;stroke-width:1;"/><path d="M887.7466,533.9063 Q887.1685,534.2031 886.5278,534.3438 Q885.8872,534.5 885.1841,534.5 Q882.6841,534.5 881.356,532.8594 Q880.0435,531.2031 880.0435,528.0781 Q880.0435,524.9531 881.356,523.2969 Q882.6841,521.6406 885.1841,521.6406 Q885.8872,521.6406 886.5278,521.7969 Q887.1841,521.9531 887.7466,522.25 L887.7466,524.9688 Q887.1216,524.3906 886.5278,524.125 Q885.9341,523.8438 885.3091,523.8438 Q883.9653,523.8438 883.2778,524.9219 Q882.5903,525.9844 882.5903,528.0781 Q882.5903,530.1719 883.2778,531.25 Q883.9653,532.3125 885.3091,532.3125 Q885.9341,532.3125 886.5278,532.0469 Q887.1216,531.7656 887.7466,531.1875 L887.7466,533.9063 Z " fill="#000000"/><text fill="#000000" font-family="sans-serif" font-size="12" font-style="italic" lengthAdjust="spacing" textLength="108.3457" x="903.2778" y="525.4355">&#171;MonoBehaviour&#187;</text><text fill="#000000" font-family="Courier" font-size="12" lengthAdjust="spacing" textLength="93.9199" x="910.4907" y="539.4043">TrackModifyUI</text><line style="stroke:#333333;stroke-width:0.5;" x1="736" x2="1146.4014" y1="547.2344" y2="547.2344"/><text fill="#000000" font-family="sans-serif" font-size="14" lengthAdjust="spacing" textLength="278.6602" x="741" y="564.2295">-_trackLevelTxt: UIView &#171;SerializeField&#187;</text><text fill="#000000" font-family="sans-serif" font-size="14" lengthAdjust="spacing" textLength="332.1924" x="741" y="580.5264">-_trackLevelUpPriceTxt: UIView &#171;SerializeField&#187;</text><line style="stroke:#333333;stroke-width:1;" x1="736" x2="1146.4014" y1="587.8281" y2="587.8281"/><text fill="#000000" font-family="sans-serif" font-size="14" lengthAdjust="spacing" textLength="322.335" x="741" y="604.8232">+OnBlockChanged(block: IBlockSubject): void</text><text fill="#000000" font-family="sans-serif" font-size="14" lengthAdjust="spacing" textLength="400.4014" x="741" y="621.1201">+OnButtonSelected(button: IUIPanelButtonSubject): void</text></g><!--class UIPanelButtonBase--><g class="entity" data-qualified-name="UIPanelButtonBase" data-source-line="89" id="ent0015"><rect fill="#FFFFFF" height="86.5313" rx="2.5" ry="2.5" style="stroke:#333333;stroke-width:0.5;" width="218.5684" x="2003.5" y="96.7969"/><ellipse cx="2047.1875" cy="115.7656" fill="#A9DCDF" rx="11" ry="11" style="stroke:#181818;stroke-width:1;"/><path d="M2047.2969,111.1094 L2046.1406,116.1875 L2048.4688,116.1875 L2047.2969,111.1094 Z M2045.8125,108.875 L2048.7969,108.875 L2052.1563,121.2656 L2049.7031,121.2656 L2048.9375,118.2031 L2045.6563,118.2031 L2044.9063,121.2656 L2042.4688,121.2656 L2045.8125,108.875 Z " fill="#000000"/><text fill="#000000" font-family="sans-serif" font-size="12" font-style="italic" lengthAdjust="spacing" textLength="108.3457" x="2074.7988" y="112.9355">&#171;MonoBehaviour&#187;</text><text fill="#000000" font-family="Courier" font-size="12" font-style="italic" lengthAdjust="spacing" textLength="122.8184" x="2067.5625" y="126.9043">UIPanelButtonBase</text><line style="stroke:#333333;stroke-width:0.5;" x1="2004.5" x2="2221.0684" y1="134.7344" y2="134.7344"/><text fill="#000000" font-family="sans-serif" font-size="14" lengthAdjust="spacing" textLength="206.5684" x="2009.5" y="151.7295">-_observers: List~IObserver~</text><line style="stroke:#333333;stroke-width:1;" x1="2004.5" x2="2221.0684" y1="159.0313" y2="159.0313"/><text fill="#000000" font-family="sans-serif" font-size="14" lengthAdjust="spacing" textLength="161.5947" x="2009.5" y="176.0264">+OnButtonClick(): void</text></g><!--class MachineSelectButton--><g class="entity" data-qualified-name="MachineSelectButton" data-source-line="95" id="ent0016"><rect fill="#FFFFFF" height="86.5313" rx="2.5" ry="2.5" style="stroke:#333333;stroke-width:0.5;" width="513.2793" x="2078.5" y="321.2969"/><ellipse cx="2262.2559" cy="340.2656" fill="#ADD1B2" rx="11" ry="11" style="stroke:#181818;stroke-width:1;"/><path d="M2265.2246,345.9063 Q2264.6465,346.2031 2264.0059,346.3438 Q2263.3652,346.5 2262.6621,346.5 Q2260.1621,346.5 2258.834,344.8594 Q2257.5215,343.2031 2257.5215,340.0781 Q2257.5215,336.9531 2258.834,335.2969 Q2260.1621,333.6406 2262.6621,333.6406 Q2263.3652,333.6406 2264.0059,333.7969 Q2264.6621,333.9531 2265.2246,334.25 L2265.2246,336.9688 Q2264.5996,336.3906 2264.0059,336.125 Q2263.4121,335.8438 2262.7871,335.8438 Q2261.4434,335.8438 2260.7559,336.9219 Q2260.0684,337.9844 2260.0684,340.0781 Q2260.0684,342.1719 2260.7559,343.25 Q2261.4434,344.3125 2262.7871,344.3125 Q2263.4121,344.3125 2264.0059,344.0469 Q2264.5996,343.7656 2265.2246,343.1875 L2265.2246,345.9063 Z " fill="#000000"/><text fill="#000000" font-family="sans-serif" font-size="12" font-style="italic" lengthAdjust="spacing" textLength="108.3457" x="2297.2168" y="337.4355">&#171;MonoBehaviour&#187;</text><text fill="#000000" font-family="Courier" font-size="12" lengthAdjust="spacing" textLength="137.2676" x="2282.7559" y="351.4043">MachineSelectButton</text><line style="stroke:#333333;stroke-width:0.5;" x1="2079.5" x2="2590.7793" y1="359.2344" y2="359.2344"/><text fill="#000000" font-family="sans-serif" font-size="14" lengthAdjust="spacing" textLength="281.6475" x="2084.5" y="376.2295">+MachineType: MachineType &#171;get, set&#187;</text><line style="stroke:#333333;stroke-width:0.5;" x1="2079.5" x2="2590.7793" y1="383.5313" y2="383.5313"/><text fill="#000000" font-family="sans-serif" font-size="14" lengthAdjust="spacing" textLength="501.2793" x="2084.5" y="400.5264">+Initialize(type: MachineType, observer: IUIPanelButtonObserver): void</text></g><!--class MachineModifyButton--><g class="entity" data-qualified-name="MachineModifyButton" data-source-line="100" id="ent0017"><rect fill="#FFFFFF" height="53.9375" rx="2.5" ry="2.5" style="stroke:#333333;stroke-width:0.5;" width="169.2676" x="2626.5" y="337.7969"/><ellipse cx="2641.5" cy="356.7656" fill="#ADD1B2" rx="11" ry="11" style="stroke:#181818;stroke-width:1;"/><path d="M2644.4688,362.4063 Q2643.8906,362.7031 2643.25,362.8438 Q2642.6094,363 2641.9063,363 Q2639.4063,363 2638.0781,361.3594 Q2636.7656,359.7031 2636.7656,356.5781 Q2636.7656,353.4531 2638.0781,351.7969 Q2639.4063,350.1406 2641.9063,350.1406 Q2642.6094,350.1406 2643.25,350.2969 Q2643.9063,350.4531 2644.4688,350.75 L2644.4688,353.4688 Q2643.8438,352.8906 2643.25,352.625 Q2642.6563,352.3438 2642.0313,352.3438 Q2640.6875,352.3438 2640,353.4219 Q2639.3125,354.4844 2639.3125,356.5781 Q2639.3125,358.6719 2640,359.75 Q2640.6875,360.8125 2642.0313,360.8125 Q2642.6563,360.8125 2643.25,360.5469 Q2643.8438,360.2656 2644.4688,359.6875 L2644.4688,362.4063 Z " fill="#000000"/><text fill="#000000" font-family="sans-serif" font-size="12" font-style="italic" lengthAdjust="spacing" textLength="108.3457" x="2669.9609" y="353.9355">&#171;MonoBehaviour&#187;</text><text fill="#000000" font-family="Courier" font-size="12" lengthAdjust="spacing" textLength="137.2676" x="2655.5" y="367.9043">MachineModifyButton</text><line style="stroke:#333333;stroke-width:0.5;" x1="2627.5" x2="2794.7676" y1="375.7344" y2="375.7344"/><line style="stroke:#333333;stroke-width:0.5;" x1="2627.5" x2="2794.7676" y1="383.7344" y2="383.7344"/></g><!--class MachineModifyButton_Levelup--><g class="entity" data-qualified-name="MachineModifyButton_Levelup" data-source-line="101" id="ent0018"><rect fill="#FFFFFF" height="53.9375" rx="2.5" ry="2.5" style="stroke:#333333;stroke-width:0.5;" width="227.0645" x="2471.5" y="541.7969"/><ellipse cx="2486.5" cy="560.7656" fill="#ADD1B2" rx="11" ry="11" style="stroke:#181818;stroke-width:1;"/><path d="M2489.4688,566.4063 Q2488.8906,566.7031 2488.25,566.8438 Q2487.6094,567 2486.9063,567 Q2484.4063,567 2483.0781,565.3594 Q2481.7656,563.7031 2481.7656,560.5781 Q2481.7656,557.4531 2483.0781,555.7969 Q2484.4063,554.1406 2486.9063,554.1406 Q2487.6094,554.1406 2488.25,554.2969 Q2488.9063,554.4531 2489.4688,554.75 L2489.4688,557.4688 Q2488.8438,556.8906 2488.25,556.625 Q2487.6563,556.3438 2487.0313,556.3438 Q2485.6875,556.3438 2485,557.4219 Q2484.3125,558.4844 2484.3125,560.5781 Q2484.3125,562.6719 2485,563.75 Q2485.6875,564.8125 2487.0313,564.8125 Q2487.6563,564.8125 2488.25,564.5469 Q2488.8438,564.2656 2489.4688,563.6875 L2489.4688,566.4063 Z " fill="#000000"/><text fill="#000000" font-family="sans-serif" font-size="12" font-style="italic" lengthAdjust="spacing" textLength="108.3457" x="2543.8594" y="557.9355">&#171;MonoBehaviour&#187;</text><text fill="#000000" font-family="Courier" font-size="12" lengthAdjust="spacing" textLength="195.0645" x="2500.5" y="571.9043">MachineModifyButton_Levelup</text><line style="stroke:#333333;stroke-width:0.5;" x1="2472.5" x2="2697.5645" y1="579.7344" y2="579.7344"/><line style="stroke:#333333;stroke-width:0.5;" x1="2472.5" x2="2697.5645" y1="587.7344" y2="587.7344"/></g><!--class MachineModifyButton_Sell--><g class="entity" data-qualified-name="MachineModifyButton_Sell" data-source-line="102" id="ent0019"><rect fill="#FFFFFF" height="53.9375" rx="2.5" ry="2.5" style="stroke:#333333;stroke-width:0.5;" width="205.3906" x="2733.5" y="541.7969"/><ellipse cx="2748.5" cy="560.7656" fill="#ADD1B2" rx="11" ry="11" style="stroke:#181818;stroke-width:1;"/><path d="M2751.4688,566.4063 Q2750.8906,566.7031 2750.25,566.8438 Q2749.6094,567 2748.9063,567 Q2746.4063,567 2745.0781,565.3594 Q2743.7656,563.7031 2743.7656,560.5781 Q2743.7656,557.4531 2745.0781,555.7969 Q2746.4063,554.1406 2748.9063,554.1406 Q2749.6094,554.1406 2750.25,554.2969 Q2750.9063,554.4531 2751.4688,554.75 L2751.4688,557.4688 Q2750.8438,556.8906 2750.25,556.625 Q2749.6563,556.3438 2749.0313,556.3438 Q2747.6875,556.3438 2747,557.4219 Q2746.3125,558.4844 2746.3125,560.5781 Q2746.3125,562.6719 2747,563.75 Q2747.6875,564.8125 2749.0313,564.8125 Q2749.6563,564.8125 2750.25,564.5469 Q2750.8438,564.2656 2751.4688,563.6875 L2751.4688,566.4063 Z " fill="#000000"/><text fill="#000000" font-family="sans-serif" font-size="12" font-style="italic" lengthAdjust="spacing" textLength="108.3457" x="2795.0225" y="557.9355">&#171;MonoBehaviour&#187;</text><text fill="#000000" font-family="Courier" font-size="12" lengthAdjust="spacing" textLength="173.3906" x="2762.5" y="571.9043">MachineModifyButton_Sell</text><line style="stroke:#333333;stroke-width:0.5;" x1="2734.5" x2="2937.8906" y1="579.7344" y2="579.7344"/><line style="stroke:#333333;stroke-width:0.5;" x1="2734.5" x2="2937.8906" y1="587.7344" y2="587.7344"/></g><!--class TrackModifyButton_LevelUp--><g class="entity" data-qualified-name="TrackModifyButton_LevelUp" data-source-line="103" id="ent0020"><rect fill="#FFFFFF" height="53.9375" rx="2.5" ry="2.5" style="stroke:#333333;stroke-width:0.5;" width="212.6152" x="2006.5" y="541.7969"/><ellipse cx="2021.5" cy="560.7656" fill="#ADD1B2" rx="11" ry="11" style="stroke:#181818;stroke-width:1;"/><path d="M2024.4688,566.4063 Q2023.8906,566.7031 2023.25,566.8438 Q2022.6094,567 2021.9063,567 Q2019.4063,567 2018.0781,565.3594 Q2016.7656,563.7031 2016.7656,560.5781 Q2016.7656,557.4531 2018.0781,555.7969 Q2019.4063,554.1406 2021.9063,554.1406 Q2022.6094,554.1406 2023.25,554.2969 Q2023.9063,554.4531 2024.4688,554.75 L2024.4688,557.4688 Q2023.8438,556.8906 2023.25,556.625 Q2022.6563,556.3438 2022.0313,556.3438 Q2020.6875,556.3438 2020,557.4219 Q2019.3125,558.4844 2019.3125,560.5781 Q2019.3125,562.6719 2020,563.75 Q2020.6875,564.8125 2022.0313,564.8125 Q2022.6563,564.8125 2023.25,564.5469 Q2023.8438,564.2656 2024.4688,563.6875 L2024.4688,566.4063 Z " fill="#000000"/><text fill="#000000" font-family="sans-serif" font-size="12" font-style="italic" lengthAdjust="spacing" textLength="108.3457" x="2071.6348" y="557.9355">&#171;MonoBehaviour&#187;</text><text fill="#000000" font-family="Courier" font-size="12" lengthAdjust="spacing" textLength="180.6152" x="2035.5" y="571.9043">TrackModifyButton_LevelUp</text><line style="stroke:#333333;stroke-width:0.5;" x1="2007.5" x2="2218.1152" y1="579.7344" y2="579.7344"/><line style="stroke:#333333;stroke-width:0.5;" x1="2007.5" x2="2218.1152" y1="587.7344" y2="587.7344"/></g><!--class BeltBlock\n(FRONTEND_BLOCK)--><g class="entity" data-qualified-name="BeltBlock.n.FRONTEND_BLOCK." data-source-line="119" id="ent0028"><rect fill="#FFFFFF" height="53.9375" rx="2.5" ry="2.5" style="stroke:#333333;stroke-width:0.5;" width="147.5938" x="1231" y="541.7969"/><ellipse cx="1246" cy="560.7656" fill="#ADD1B2" rx="11" ry="11" style="stroke:#181818;stroke-width:1;"/><path d="M1248.9688,566.4063 Q1248.3906,566.7031 1247.75,566.8438 Q1247.1094,567 1246.4063,567 Q1243.9063,567 1242.5781,565.3594 Q1241.2656,563.7031 1241.2656,560.5781 Q1241.2656,557.4531 1242.5781,555.7969 Q1243.9063,554.1406 1246.4063,554.1406 Q1247.1094,554.1406 1247.75,554.2969 Q1248.4063,554.4531 1248.9688,554.75 L1248.9688,557.4688 Q1248.3438,556.8906 1247.75,556.625 Q1247.1563,556.3438 1246.5313,556.3438 Q1245.1875,556.3438 1244.5,557.4219 Q1243.8125,558.4844 1243.8125,560.5781 Q1243.8125,562.6719 1244.5,563.75 Q1245.1875,564.8125 1246.5313,564.8125 Q1247.1563,564.8125 1247.75,564.5469 Q1248.3438,564.2656 1248.9688,563.6875 L1248.9688,566.4063 Z " fill="#000000"/><text fill="#000000" font-family="Courier" font-size="12" lengthAdjust="spacing" textLength="65.0215" x="1285.2861" y="557.9355">BeltBlock</text><text fill="#000000" font-family="Courier" font-size="12" lengthAdjust="spacing" textLength="115.5938" x="1260" y="571.9043">(FRONTEND_BLOCK)</text><line style="stroke:#333333;stroke-width:0.5;" x1="1232" x2="1377.5938" y1="579.7344" y2="579.7344"/><line style="stroke:#333333;stroke-width:0.5;" x1="1232" x2="1377.5938" y1="587.7344" y2="587.7344"/></g><!--class TrackBlock\n(FRONTEND_BLOCK)--><g class="entity" data-qualified-name="TrackBlock.n.FRONTEND_BLOCK." data-source-line="121" id="ent0031"><rect fill="#FFFFFF" height="53.9375" rx="2.5" ry="2.5" style="stroke:#333333;stroke-width:0.5;" width="147.5938" x="867" y="705.2969"/><ellipse cx="882" cy="724.2656" fill="#ADD1B2" rx="11" ry="11" style="stroke:#181818;stroke-width:1;"/><path d="M884.9688,729.9063 Q884.3906,730.2031 883.75,730.3438 Q883.1094,730.5 882.4063,730.5 Q879.9063,730.5 878.5781,728.8594 Q877.2656,727.2031 877.2656,724.0781 Q877.2656,720.9531 878.5781,719.2969 Q879.9063,717.6406 882.4063,717.6406 Q883.1094,717.6406 883.75,717.7969 Q884.4063,717.9531 884.9688,718.25 L884.9688,720.9688 Q884.3438,720.3906 883.75,720.125 Q883.1563,719.8438 882.5313,719.8438 Q881.1875,719.8438 880.5,720.9219 Q879.8125,721.9844 879.8125,724.0781 Q879.8125,726.1719 880.5,727.25 Q881.1875,728.3125 882.5313,728.3125 Q883.1563,728.3125 883.75,728.0469 Q884.3438,727.7656 884.9688,727.1875 L884.9688,729.9063 Z " fill="#000000"/><text fill="#000000" font-family="Courier" font-size="12" lengthAdjust="spacing" textLength="72.2461" x="917.6738" y="721.4355">TrackBlock</text><text fill="#000000" font-family="Courier" font-size="12" lengthAdjust="spacing" textLength="115.5938" x="896" y="735.4043">(FRONTEND_BLOCK)</text><line style="stroke:#333333;stroke-width:0.5;" x1="868" x2="1013.5938" y1="743.2344" y2="743.2344"/><line style="stroke:#333333;stroke-width:0.5;" x1="868" x2="1013.5938" y1="751.2344" y2="751.2344"/></g><!--link UIPanelBase to IBlockObserver--><g class="link" data-entity-1="ent0005" data-entity-2="ent0002" data-link-type="extension" data-source-line="76" id="lnk9"><path codeLine="76" d="M634.92,230.2269 C628.9,232.3269 622.92,234.3569 617,236.2969 C504.6,273.0769 471.35,263.5869 358,297.2969 C323.49,307.5569 302.8857,314.4649 270.8157,326.3649" fill="none" id="UIPanelBase-to-IBlockObserver" style="stroke:#333333;stroke-width:1.5;stroke-dasharray:7,7;"/><polygon fill="none" points="253.94,332.6269,272.903,331.9902,268.7284,320.7397,253.94,332.6269" style="stroke:#333333;stroke-width:1.5;stroke-linejoin:miter;stroke-miterlimit:10;"/></g><!--link UIPanelBase to IUIPanelButtonObserver--><g class="link" data-entity-1="ent0005" data-entity-2="ent0003" data-link-type="extension" data-source-line="77" id="lnk10"><path codeLine="77" d="M730.41,236.3069 C690.12,270.9069 660.9918,295.9253 631.7718,321.0353" fill="none" id="UIPanelBase-to-IUIPanelButtonObserver" style="stroke:#333333;stroke-width:1.5;stroke-dasharray:7,7;"/><polygon fill="none" points="618.12,332.7669,635.6823,325.5859,627.8613,316.4847,618.12,332.7669" style="stroke:#333333;stroke-width:1.5;stroke-linejoin:miter;stroke-miterlimit:10;"/></g><!--reverse link UIPanelBase to MachineSelectUI--><g class="link" data-entity-1="ent0005" data-entity-2="ent0006" data-link-type="extension" data-source-line="78" id="lnk11"><path codeLine="78" d="M965.2457,248.0339 C996.0457,274.4839 1014.64,290.4669 1041.19,313.2769" fill="none" id="UIPanelBase-backto-MachineSelectUI" style="stroke:#333333;stroke-width:1.5;"/><polygon fill="none" points="951.59,236.3069,961.3367,252.5858,969.1547,243.482,951.59,236.3069" style="stroke:#333333;stroke-width:1.5;stroke-linejoin:miter;stroke-miterlimit:10;"/></g><!--reverse link UIPanelBase to MachineModifyUI--><g class="link" data-entity-1="ent0005" data-entity-2="ent0007" data-link-type="extension" data-source-line="79" id="lnk12"><path codeLine="79" d="M1064.2675,211.6576 C1156.7575,240.8076 1248.46,269.7069 1340.95,298.8569" fill="none" id="UIPanelBase-backto-MachineModifyUI" style="stroke:#333333;stroke-width:1.5;"/><polygon fill="none" points="1047.1,206.2469,1062.464,217.3801,1066.0711,205.935,1047.1,206.2469" style="stroke:#333333;stroke-width:1.5;stroke-linejoin:miter;stroke-miterlimit:10;"/></g><!--reverse link UIPanelBase to TrackModifyUI--><g class="link" data-entity-1="ent0005" data-entity-2="ent0008" data-link-type="extension" data-source-line="80" id="lnk13"><path codeLine="80" d="M845.8749,254.5217 C849.9649,312.1217 857.43,368.5469 876,432.2969 C883.63,458.4769 895.86,485.8569 907.66,509.1069" fill="none" id="UIPanelBase-backto-TrackModifyUI" style="stroke:#333333;stroke-width:1.5;"/><polygon fill="none" points="844.6,236.5669,839.89,254.9466,851.8598,254.0967,844.6,236.5669" style="stroke:#333333;stroke-width:1.5;stroke-linejoin:miter;stroke-miterlimit:10;"/></g><!--link MachineSelectUI to TrackModifyUI--><!--link UIPanelButtonBase to IUIPanelButtonSubject--><g class="link" data-entity-1="ent0015" data-entity-2="ent0004" data-link-type="extension" data-source-line="105" id="lnk21"><path codeLine="105" d="M2068.35,183.9369 C2019.46,230.6269 1955.887,291.3248 1917.167,328.3048" fill="none" id="UIPanelButtonBase-to-IUIPanelButtonSubject" style="stroke:#333333;stroke-width:1.5;stroke-dasharray:7,7;"/><polygon fill="none" points="1904.15,340.7369,1921.3111,332.6438,1913.023,323.9658,1904.15,340.7369" style="stroke:#333333;stroke-width:1.5;stroke-linejoin:miter;stroke-miterlimit:10;"/></g><!--reverse link UIPanelButtonBase to MachineSelectButton--><g class="link" data-entity-1="ent0015" data-entity-2="ent0016" data-link-type="extension" data-source-line="106" id="lnk22"><path codeLine="106" d="M2168.2533,196.6794 C2207.5333,236.0494 2252.87,281.4769 2292.22,320.9269" fill="none" id="UIPanelButtonBase-backto-MachineSelectButton" style="stroke:#333333;stroke-width:1.5;"/><polygon fill="none" points="2155.54,183.9369,2164.0059,200.9171,2172.5008,192.4416,2155.54,183.9369" style="stroke:#333333;stroke-width:1.5;stroke-linejoin:miter;stroke-miterlimit:10;"/></g><!--reverse link UIPanelButtonBase to MachineModifyButton--><g class="link" data-entity-1="ent0015" data-entity-2="ent0017" data-link-type="extension" data-source-line="107" id="lnk23"><path codeLine="107" d="M2240.0877,170.9721 C2342.7977,196.7721 2481.67,237.1569 2609,297.2969 C2632.51,308.3969 2656.98,324.1869 2676.05,337.5869" fill="none" id="UIPanelButtonBase-backto-MachineModifyButton" style="stroke:#333333;stroke-width:1.5;"/><polygon fill="none" points="2222.63,166.5869,2238.6259,176.7913,2241.5494,165.1529,2222.63,166.5869" style="stroke:#333333;stroke-width:1.5;stroke-linejoin:miter;stroke-miterlimit:10;"/></g><!--reverse link UIPanelButtonBase to TrackModifyButton_LevelUp--><g class="link" data-entity-1="ent0015" data-entity-2="ent0020" data-link-type="extension" data-source-line="108" id="lnk24"><path codeLine="108" d="M2087.948,200.7866 C2075.708,231.6166 2067.4,257.8469 2061,297.2969 C2051.39,356.5269 2050.07,373.2969 2061,432.2969 C2068.35,471.9369 2086.82,514.9569 2099.65,541.6469" fill="none" id="UIPanelButtonBase-backto-TrackModifyButton_LevelUp" style="stroke:#333333;stroke-width:1.5;"/><polygon fill="none" points="2094.59,184.0569,2082.3714,198.5726,2093.5246,203.0006,2094.59,184.0569" style="stroke:#333333;stroke-width:1.5;stroke-linejoin:miter;stroke-miterlimit:10;"/></g><!--reverse link MachineModifyButton to MachineModifyButton_Levelup--><g class="link" data-entity-1="ent0017" data-entity-2="ent0018" data-link-type="extension" data-source-line="109" id="lnk25"><path codeLine="109" d="M2685.002,407.4784 C2660.782,446.2984 2625.38,503.0669 2601.28,541.7069" fill="none" id="MachineModifyButton-backto-MachineModifyButton_Levelup" style="stroke:#333333;stroke-width:1.5;"/><polygon fill="none" points="2694.53,392.2069,2679.9116,404.3024,2690.0925,410.6543,2694.53,392.2069" style="stroke:#333333;stroke-width:1.5;stroke-linejoin:miter;stroke-miterlimit:10;"/></g><!--reverse link MachineModifyButton to MachineModifyButton_Sell--><g class="link" data-entity-1="ent0017" data-entity-2="ent0019" data-link-type="extension" data-source-line="110" id="lnk26"><path codeLine="110" d="M2736.8111,407.5137 C2760.8311,446.3337 2795.94,503.0669 2819.85,541.7069" fill="none" id="MachineModifyButton-backto-MachineModifyButton_Sell" style="stroke:#333333;stroke-width:1.5;"/><polygon fill="none" points="2727.34,392.2069,2731.7089,410.6707,2741.9134,404.3566,2727.34,392.2069" style="stroke:#333333;stroke-width:1.5;stroke-linejoin:miter;stroke-miterlimit:10;"/></g><!--link MachineSelectButton to TrackModifyButton_LevelUp--><!--link MachineModifyUI to BeltBlock\n(FRONTEND_BLOCK)--><g class="link" data-entity-1="ent0007" data-entity-2="ent0028" data-link-type="dependency" data-source-line="119" id="lnk29"><path codeLine="119" d="M1467.09,432.4969 C1422.35,469.8469 1372.9279,511.0921 1340.0079,538.5821" fill="none" id="MachineModifyUI-to-BeltBlock\n(FRONTEND_BLOCK)" style="stroke:#333333;stroke-width:1.5;stroke-dasharray:7,7;"/><polygon fill="#333333" points="1336.17,541.7869,1345.642,539.0885,1340.0079,538.5821,1340.5143,532.9479,1336.17,541.7869" style="stroke:#333333;stroke-width:1.5;stroke-linejoin:miter;stroke-miterlimit:10;"/><text fill="#000000" font-family="sans-serif" font-size="13" lengthAdjust="spacing" textLength="197.2661" x="1427" y="475.3638">MachineLevelUp / SellMachine</text></g><!--link MachineSelectUI to BeltBlock\n(FRONTEND_BLOCK)--><g class="link" data-entity-1="ent0006" data-entity-2="ent0028" data-link-type="dependency" data-source-line="120" id="lnk30"><path codeLine="120" d="M1151.47,416.5069 C1191.91,456.3569 1243.0284,506.7276 1275.0384,538.2676" fill="none" id="MachineSelectUI-to-BeltBlock\n(FRONTEND_BLOCK)" style="stroke:#333333;stroke-width:1.5;stroke-dasharray:7,7;"/><polygon fill="#333333" points="1278.6,541.7769,1274.9966,532.6109,1275.0384,538.2676,1269.3817,538.3094,1278.6,541.7769" style="stroke:#333333;stroke-width:1.5;stroke-linejoin:miter;stroke-miterlimit:10;"/><text fill="#000000" font-family="sans-serif" font-size="13" lengthAdjust="spacing" textLength="97.8999" x="1216" y="475.3638">CreateMachine</text></g><!--link TrackModifyUI to TrackBlock\n(FRONTEND_BLOCK)--><g class="link" data-entity-1="ent0008" data-entity-2="ent0031" data-link-type="dependency" data-source-line="121" id="lnk32"><path codeLine="121" d="M941,628.5569 C941,654.8969 941,679.6069 941,700.2769" fill="none" id="TrackModifyUI-to-TrackBlock\n(FRONTEND_BLOCK)" style="stroke:#333333;stroke-width:1.5;stroke-dasharray:7,7;"/><polygon fill="#333333" points="941,705.2769,945,696.2769,941,700.2769,937,696.2769,941,705.2769" style="stroke:#333333;stroke-width:1.5;stroke-linejoin:miter;stroke-miterlimit:10;"/><text fill="#000000" font-family="sans-serif" font-size="13" lengthAdjust="spacing" textLength="88.2388" x="942" y="671.3638">TrackLevelUp</text></g><?plantuml-src pLVXRk964FxlfnXTfTOe0PgcFKKMGYeSzAmc8Ifm_T5MqTgUuBriTgtT9IdjtQcFq1_j2zwJTBssmGQR8sfLWI85lD_CxdmpyyrQtLEU44aU86H4gM-rbZHOQlH3mQVqDuGl7LM5Z0NNr-G1OIYMagAiMxUMPrzjBxr64g4SaF1-8SMIHqF1X8JFNbsCBiOx-mo4DE0SScu_Ev1jJsFxAS4eroZlI8WxKBFbrwEBMcXruvSlAniJASLJqwdiuYocuJr7fU2iyutZQAePmbWQMaOyWlFkENpyuo-O-t13E385dyDWgRNW2jmh4iQKuznlWJldLAzQZiE5HY0AhiySW5xGduOYmLutw7jhfzsvtrsRWhjW8Y0Ck4cIIan0BMCua3HQu2P81IH9aCZKizBBG46C4kt9T8nmjsGC_EaoU8kXxlgJGA5yDBa6Y4tAYGpZ5L1btC7uXydrR7JzwlQDF_gnaomVM0TcH2vGGy14U6-Y6Y3JW_JxgR6VIPC9-wjbw4A8K1FACAhu6bnEXjzRPmuQpb8A7ESB-FZtdqVoPmwppMXEeskfMxFarH3KEgvGd4q8larCaMtutUJhPCBjms5C-08ZroRLov5vWRGyU1GqSjwNNSrzMzzPRU-uj4-do8nrwjJ-zBQC3lQU0utpzqTN9gOXawpFNTEtt1HwiCew0vGDdmf-R0LXnHKAYeb2wFNWId0nm9WyKgFxqE_RLBPjR1vyPxHcaYMXrvkYf8IP4J2coA9-FyNTQgi9WwnwxB_KSRhKJajYLhjid9cdfv18em1ffHZETERGMaqCetE_gCcrML4n1Z5aGXbHT4kFfgYpmfkyTRCKc9ENGoXXdr7y_wAkSy9p2S-iJTqqafwvlP5uHu83kC_WoeDBglI7ob5IjZviwFnFpdyb8dgtsdV-suSCELibEFjLUwRKtb1yQYeTXe_83iNDanko-ZIu_Rzdrmw-0xZHAUxom90tO1Etf24UL-Hb2UbqtlMt1apDUktKgE1wxzhjxLPf11Hyxm8gwKYdXj8arMGQCCeNXMPh0Om-K0rFDDAnizsXxPzY6aN8VwdnTrHJo0OFkH0SsRGXWKhBM4DrxAprQK-lYBn02crRNrHtDMt8pAtStQ-v6R9nlvEhZMnvKFfHZAbYE9tuvkwUDPwhjy6dK9pQQoZt_SBQVCXczAsLY6NoJ2l32jjZKYhvyZRp-csStSJMj7ok8JNWtRxF5Zy1BP-l2TeOY5FBV8FtWkJd6QKSxyfFtgbxzIVtNAz1Mt4Sfnwr-_bDs5xiYRqBctjozjxerRqE7jjDUVlAq-dquSNwVVTdxbPZQBs0jHOKlTA5j0JoXpiJvX27Gub4O-6XUi-mzfjtxde7iz8jmla7?></g></svg>